<?xml version="1.0" standalone="no"?>
<!DOCTYPE svg PUBLIC "-//W3C//DTD SVG 20010904//EN"
 "http://www.w3.org/TR/2001/REC-SVG-20010904/DTD/svg10.dtd">
<svg version="1.0" xmlns="http://www.w3.org/2000/svg"
 width="1080.000000pt" height="1080.000000pt" viewBox="0 0 1080.000000 1080.000000"
 preserveAspectRatio="xMidYMid meet">
<metadata>
Created by potrace 1.14, written by Peter Selinger 2001-2017
</metadata>
<g transform="translate(0.000000,1080.000000) scale(0.100000,-0.100000)"
fill="#000000" stroke="none">
<path d="M961 10503 c-11 -12 -15 -13 -22 -1 -8 12 -13 4 -10 -16 1 -5 -5 -4
-13 4 -13 10 -16 10 -16 0 0 -10 -3 -10 -15 0 -12 10 -16 9 -21 -4 -4 -10 -13
-15 -22 -11 -13 5 -13 3 -1 -11 13 -16 12 -16 -7 -6 -13 7 -25 7 -30 2 -5 -5
-18 -11 -29 -13 -26 -4 -56 -21 -58 -33 -1 -5 -6 -8 -11 -6 -4 1 -14 -2 -20
-8 -7 -5 -17 -6 -21 -2 -5 4 -5 1 -1 -5 4 -7 2 -13 -4 -13 -6 0 -9 -4 -6 -9 3
-5 -2 -8 -12 -7 -10 0 -16 -5 -14 -13 2 -11 0 -12 -11 -3 -17 14 -28 6 -20
-16 4 -10 2 -13 -5 -8 -7 4 -19 1 -27 -8 -11 -11 -12 -16 -2 -19 11 -5 -18
-11 -37 -8 -5 1 -6 -5 -3 -14 4 -9 1 -15 -8 -15 -8 0 -19 -10 -26 -21 -9 -17
-8 -20 2 -14 8 5 10 4 5 -3 -4 -7 -16 -12 -27 -12 -12 0 -17 -5 -14 -10 8 -14
-14 -42 -27 -34 -5 3 -8 -2 -6 -12 2 -13 -3 -19 -15 -18 -14 2 -15 -1 -6 -12
10 -12 6 -18 -12 -16 -3 1 -5 -10 -3 -24 2 -19 -1 -23 -10 -14 -10 8 -13 4
-10 -16 2 -20 -1 -24 -13 -20 -13 5 -14 4 -3 -9 7 -8 8 -15 4 -15 -5 0 -15 -9
-22 -21 -8 -12 -9 -18 -3 -14 16 9 13 -12 -5 -48 -41 -78 -43 -86 -16 -66 14
12 14 10 -2 -8 -10 -12 -16 -29 -12 -38 3 -9 2 -13 -4 -10 -6 4 -9 -224 -9
-625 0 -387 4 -630 10 -630 5 0 9 -5 9 -11 0 -5 -4 -8 -9 -5 -11 7 -8 -21 4
-31 4 -4 5 -1 0 7 -6 12 -5 13 5 3 11 -10 11 -15 -1 -29 -12 -15 -12 -17 0 -9
11 6 13 4 8 -8 -4 -12 -1 -17 10 -17 13 0 14 -2 2 -17 -8 -10 -9 -14 -2 -10 6
4 14 3 18 -3 3 -5 0 -10 -7 -10 -8 -1 -7 -5 5 -14 14 -11 15 -15 5 -19 -11 -4
-11 -6 0 -6 7 -1 10 -5 7 -11 -3 -5 2 -10 12 -10 15 0 16 -2 3 -10 -10 -6 -11
-10 -2 -10 6 0 11 -3 11 -7 -3 -20 2 -34 11 -28 6 3 10 -3 10 -13 0 -11 7 -25
15 -32 8 -7 13 -16 10 -20 -3 -5 4 -12 15 -15 16 -5 18 -10 10 -20 -8 -10 -6
-15 10 -20 11 -4 28 -17 36 -30 10 -16 21 -22 32 -17 15 5 15 4 -1 -12 -19
-19 -23 -31 -7 -21 5 3 22 -7 37 -22 14 -15 23 -22 19 -15 -4 7 -2 12 5 12 6
0 9 -8 6 -20 -3 -10 -2 -19 2 -19 16 2 50 -14 46 -21 -5 -8 33 -26 48 -22 4 1
7 -3 7 -9 0 -6 7 -9 15 -5 8 3 14 2 14 -2 -3 -18 2 -32 12 -32 5 0 7 4 4 10
-3 6 1 7 9 4 9 -3 13 -11 9 -17 -4 -6 0 -8 10 -4 12 4 17 1 17 -11 0 -15 2
-15 10 -2 7 11 10 11 10 2 0 -7 5 -10 10 -7 6 3 10 2 10 -4 0 -6 7 -8 16 -4
11 4 23 -3 35 -18 12 -15 17 -17 13 -6 -3 9 -1 17 5 17 6 0 11 -6 11 -13 0 -7
9 -13 20 -14 11 -1 18 2 15 8 -10 15 2 10 16 -8 12 -14 12 -16 0 -8 -10 5 -12
4 -7 -3 5 -9 13 -9 27 -2 18 10 23 6 20 -13 -1 -5 3 -6 9 -2 5 3 19 8 29 10
14 3 19 -1 16 -14 -2 -11 3 -17 16 -17 10 0 19 4 19 8 0 5 12 0 27 -9 15 -10
24 -13 20 -6 -10 16 20 10 36 -7 10 -11 8 -11 -8 0 -20 15 -20 14 -1 -8 19
-22 32 -30 21 -13 -3 5 -1 12 5 16 5 3 10 1 10 -5 0 -7 6 -10 13 -7 6 2 28 -4
47 -13 19 -10 45 -16 58 -14 16 3 21 0 16 -8 -5 -7 -3 -8 7 -2 23 14 36 13 35
-4 -1 -12 8 -17 32 -18 75 -3 74 -3 68 -21 -5 -15 -4 -15 9 1 13 17 18 16 17
-4 0 -3 17 -5 39 -4 22 0 43 -4 46 -9 4 -6 1 -7 -7 -2 -8 5 -11 4 -6 -3 4 -6
14 -8 23 -5 11 4 14 3 9 -6 -9 -14 16 -11 26 4 5 6 8 5 8 -2 0 -7 12 -13 26
-13 17 0 23 -4 18 -12 -5 -9 -2 -9 9 1 15 12 17 11 18 -5 0 -18 1 -18 9 1 8
18 9 18 9 2 1 -10 5 -15 11 -12 5 3 19 0 31 -9 12 -8 32 -12 46 -10 15 3 22 1
18 -6 -3 -5 -2 -10 4 -10 5 0 13 5 16 11 5 6 12 4 22 -8 9 -11 12 -12 8 -3 -4
8 4 4 16 -10 13 -14 20 -18 16 -9 -4 13 -1 16 14 12 10 -3 19 -9 19 -13 0 -4
12 -5 26 -2 17 3 25 1 21 -6 -4 -5 0 -13 9 -16 8 -3 12 -2 9 4 -3 6 -2 10 3
10 6 0 13 -7 16 -16 5 -13 9 -14 20 -5 10 8 16 9 21 1 3 -5 17 -10 31 -10 13
0 24 -4 24 -10 0 -5 16 -10 36 -10 25 0 33 -3 28 -12 -5 -8 0 -7 11 2 17 13
18 13 13 -1 -5 -13 -2 -16 13 -12 12 3 19 0 19 -8 0 -11 2 -11 10 1 8 12 10
12 10 1 0 -8 3 -11 6 -8 4 3 16 1 28 -5 27 -15 48 -19 40 -7 -3 5 -9 7 -14 4
-4 -3 -14 3 -21 13 -13 15 -12 16 4 3 9 -7 17 -10 17 -6 0 5 9 0 19 -9 11 -10
25 -15 32 -10 8 4 10 3 5 -4 -4 -7 -3 -12 3 -12 5 0 12 6 14 13 3 7 6 4 6 -7
1 -16 3 -17 18 -5 15 12 16 12 10 -4 -6 -15 -4 -16 13 -7 11 6 19 7 18 3 -3
-7 7 -15 15 -12 25 8 38 5 33 -6 -3 -9 0 -12 10 -8 8 3 14 2 12 -3 -2 -5 2 -9
7 -9 6 0 9 3 7 8 -1 4 2 7 8 7 5 0 10 -4 10 -9 0 -6 9 -8 20 -6 11 2 22 -1 25
-6 4 -5 11 -6 17 -3 6 4 8 2 4 -4 -8 -14 26 -25 49 -16 14 6 16 4 10 -7 -7
-11 -6 -12 6 -3 10 8 20 8 36 -1 13 -6 21 -14 18 -17 -3 -2 2 -5 10 -5 8 0 12
5 8 10 -3 5 7 1 23 -9 15 -11 25 -14 21 -7 -5 7 0 9 13 6 11 -3 20 -12 20 -21
0 -13 3 -12 16 4 8 10 13 14 10 8 -3 -7 2 -18 11 -25 9 -8 14 -9 10 -3 -4 7 0
14 8 17 10 4 12 1 8 -11 -6 -15 -5 -16 12 -2 10 8 16 10 12 4 -3 -6 5 -16 19
-23 35 -15 41 -14 18 5 -18 15 -18 15 2 5 12 -6 25 -7 29 -3 5 4 5 1 0 -7 -6
-11 -2 -13 19 -9 20 4 26 2 22 -8 -3 -8 -2 -13 2 -13 4 1 9 0 12 -1 22 -8 39
-7 33 3 -4 7 0 6 10 -1 9 -8 21 -11 27 -7 5 3 10 1 10 -4 0 -6 12 -11 28 -11
22 0 24 -2 12 -11 -13 -9 -12 -10 3 -5 9 3 25 9 35 12 13 4 14 3 4 -4 -11 -7
-9 -10 7 -15 14 -3 19 -1 15 6 -3 7 5 1 17 -13 15 -17 20 -19 16 -7 -4 9 -2
17 3 17 6 0 10 -5 10 -11 0 -6 9 -9 20 -6 11 3 23 0 27 -5 4 -7 1 -8 -7 -3 -9
5 -11 4 -6 -4 6 -9 11 -9 24 1 9 8 13 8 9 2 -4 -7 0 -15 9 -18 8 -3 13 -2 10
2 -3 5 1 9 9 9 8 0 14 -3 13 -6 -2 -19 4 -22 17 -11 10 9 15 9 15 1 0 -6 3
-10 8 -10 20 3 32 -2 26 -13 -5 -7 -3 -8 7 -2 8 4 20 9 27 10 11 2 11 0 0 -13
-12 -15 -11 -15 10 -4 15 8 22 8 22 1 0 -6 4 -9 9 -6 12 8 42 -4 37 -13 -3 -4
8 -6 25 -5 16 1 29 -3 29 -9 0 -7 5 -5 10 3 6 9 10 10 10 3 0 -7 9 -10 21 -8
17 3 19 1 9 -9 -9 -11 -5 -14 20 -12 17 1 33 -1 36 -5 3 -5 12 -5 21 -2 11 5
14 3 8 -6 -6 -10 -3 -11 13 -2 15 8 23 8 28 -1 5 -7 3 -8 -6 -3 -9 6 -11 4 -6
-4 5 -7 14 -10 22 -7 8 3 14 0 14 -6 0 -7 5 -6 15 2 11 9 15 9 15 1 0 -8 5 -9
18 -2 14 7 19 6 19 -4 0 -8 -5 -11 -10 -8 -6 3 -7 1 -3 -6 6 -9 11 -9 24 1 9
7 13 8 9 2 -4 -7 2 -12 16 -12 37 0 51 -6 64 -27 7 -11 12 -14 13 -7 0 15 40
16 40 1 0 -8 4 -8 13 -1 14 12 51 -10 39 -24 -4 -4 1 -2 11 5 13 10 17 11 17
1 0 -9 4 -9 17 1 14 12 16 12 8 0 -6 -11 -3 -13 13 -9 13 4 20 2 19 -6 -1 -6
8 -11 21 -10 12 0 22 -4 22 -10 0 -6 5 -4 10 4 7 11 10 11 10 2 0 -9 10 -12
31 -8 24 4 28 2 19 -9 -9 -11 -7 -12 11 -8 14 4 20 2 16 -5 -8 -11 11 -11 31
1 8 5 12 2 12 -9 0 -14 3 -14 16 -4 8 8 14 9 12 4 -2 -5 2 -9 7 -9 5 0 9 5 7
10 -1 6 7 -1 18 -14 11 -13 20 -18 20 -11 0 9 4 9 17 -1 9 -8 18 -12 20 -11 3
2 8 0 11 -4 4 -4 2 -4 -5 0 -6 3 -14 2 -17 -3 -3 -5 7 -8 23 -7 19 1 34 -5 42
-16 8 -10 23 -18 34 -18 16 0 17 -2 5 -10 -12 -8 -10 -10 9 -10 13 0 22 -3 18
-6 -8 -9 16 -33 27 -26 5 3 7 -2 3 -11 -6 -15 1 -20 23 -19 3 0 14 -12 25 -26
18 -25 18 -26 0 -12 -17 14 -17 14 -4 -7 7 -12 15 -20 18 -18 8 8 32 -35 26
-45 -3 -6 -1 -10 5 -10 6 0 8 -4 5 -10 -3 -5 -3 -10 2 -10 4 0 13 -16 19 -35
6 -19 7 -32 2 -29 -4 3 -8 0 -8 -5 0 -6 5 -11 10 -11 6 0 10 -9 10 -21 0 -13
-4 -18 -12 -14 -7 4 -2 -3 11 -14 13 -12 18 -21 11 -21 -9 0 -9 -4 1 -17 8 -9
12 -19 11 -22 -18 -30 -20 -39 -11 -48 8 -8 7 -13 -2 -18 -8 -5 -10 -4 -5 3 4
7 2 12 -3 12 -17 0 -13 -18 7 -29 16 -10 16 -10 0 -11 -12 0 -15 -5 -11 -17 4
-11 3 -14 -5 -9 -7 4 -12 3 -12 -3 0 -5 5 -11 11 -13 6 -2 5 -14 -5 -32 -8
-16 -12 -34 -9 -39 3 -6 1 -7 -5 -3 -7 4 -12 4 -13 -1 0 -4 -2 -18 -3 -31 -2
-13 -15 -34 -29 -46 -15 -13 -27 -27 -27 -31 0 -4 -8 -14 -18 -23 -10 -10 -13
-15 -7 -12 6 3 3 -2 -7 -11 -9 -9 -14 -19 -11 -23 4 -3 1 -6 -4 -6 -6 0 -14 6
-16 13 -3 7 -6 5 -6 -5 -1 -10 -6 -18 -12 -18 -5 0 -8 -4 -4 -9 3 -6 -3 -8
-14 -6 -15 3 -18 0 -14 -12 4 -11 2 -14 -5 -9 -6 4 -22 0 -35 -9 -13 -8 -26
-12 -29 -9 -4 3 -12 -4 -18 -16 -10 -18 -14 -20 -21 -9 -7 11 -9 11 -9 1 0 -7
-4 -10 -10 -7 -5 3 -10 2 -10 -4 0 -6 -6 -8 -14 -5 -8 3 -17 0 -21 -6 -6 -9
-10 -9 -16 1 -7 11 -9 10 -9 -4 0 -15 -3 -16 -21 -6 -17 9 -20 8 -14 -2 6 -9
3 -11 -9 -6 -10 4 -15 3 -11 -3 3 -6 -4 -10 -17 -10 -13 0 -30 -6 -37 -12 -11
-10 -13 -10 -7 0 4 6 2 12 -3 12 -10 0 -15 -14 -12 -33 1 -5 -3 -6 -9 -2 -6 3
-8 10 -5 14 2 5 -7 6 -20 3 -14 -2 -25 -8 -25 -12 0 -5 -11 -7 -24 -6 -14 2
-27 -3 -30 -10 -3 -7 -13 -13 -23 -13 -40 -1 -53 -5 -54 -15 0 -6 -4 -2 -9 9
-8 18 -9 18 -9 2 -1 -10 -5 -15 -11 -12 -5 3 -10 0 -10 -7 0 -9 -3 -9 -10 2
-7 11 -10 11 -10 2 0 -7 -4 -10 -10 -7 -5 3 -10 -2 -10 -12 0 -14 -2 -15 -9
-4 -8 12 -12 12 -26 -3 -14 -14 -20 -14 -33 -4 -13 11 -14 11 -8 -1 7 -10 3
-12 -13 -6 -15 5 -21 2 -21 -10 0 -9 -5 -13 -10 -10 -6 4 -7 12 -3 18 5 8 2 8
-9 0 -8 -7 -18 -10 -21 -6 -6 6 -11 -11 -8 -29 0 -4 -6 -5 -14 -2 -8 4 -15 11
-15 17 0 6 -7 2 -15 -9 -9 -12 -14 -14 -15 -6 0 7 -5 10 -10 7 -6 -4 -7 -12
-3 -18 4 -7 -2 -5 -12 3 -10 8 -16 10 -12 4 4 -7 0 -15 -9 -18 -8 -3 -13 -2
-9 3 6 11 -22 8 -32 -4 -4 -4 -2 -5 6 0 10 5 12 4 7 -3 -5 -9 -13 -9 -27 -2
-10 6 -19 7 -19 2 0 -5 -11 -14 -25 -20 -19 -9 -25 -9 -25 1 0 8 -3 7 -9 -2
-5 -8 -17 -16 -25 -17 -9 -1 -14 1 -11 5 2 4 -2 8 -10 8 -8 0 -12 -4 -9 -9 3
-4 -2 -8 -11 -8 -10 0 -13 -5 -9 -12 5 -9 2 -9 -9 1 -16 13 -22 8 -17 -14 1
-5 -8 -1 -20 10 -21 19 -21 19 -14 -1 7 -16 6 -17 -8 -6 -14 11 -20 11 -37 0
-12 -7 -21 -16 -21 -21 0 -4 -10 -3 -21 4 -13 7 -19 7 -15 1 3 -6 2 -13 -4
-17 -5 -3 -10 0 -10 7 0 10 -3 9 -10 -2 -5 -8 -12 -11 -16 -8 -3 4 -13 1 -20
-7 -8 -8 -27 -13 -42 -11 -15 1 -33 -5 -40 -14 -8 -8 -11 -9 -7 -3 4 9 1 11
-9 7 -9 -3 -14 -9 -11 -13 2 -4 -2 -8 -10 -8 -8 0 -11 5 -8 11 3 6 1 6 -7 -1
-7 -6 -19 -9 -28 -5 -11 4 -14 1 -9 -11 5 -14 2 -15 -19 -7 -15 6 -23 6 -19 1
3 -5 1 -12 -5 -16 -5 -3 -10 -2 -10 3 0 5 -7 9 -15 9 -10 0 -14 -6 -10 -16 5
-13 4 -13 -6 -4 -10 10 -15 9 -26 -5 -14 -16 -14 -16 -9 2 6 16 4 17 -9 6 -8
-7 -13 -16 -10 -20 2 -4 -7 -5 -20 -2 -14 2 -33 -2 -42 -9 -15 -12 -16 -12 -8
1 7 13 6 13 -7 2 -13 -10 -17 -10 -21 0 -3 7 -6 3 -6 -9 -1 -20 -4 -21 -27
-13 -16 7 -23 7 -19 0 4 -6 -6 -8 -24 -6 -17 2 -28 0 -26 -5 3 -4 1 -10 -5
-14 -5 -3 -10 0 -10 7 0 8 -5 6 -11 -4 -5 -10 -15 -18 -20 -18 -6 0 -7 5 -4
10 3 6 1 10 -4 10 -6 0 -11 -4 -11 -9 0 -6 -9 -8 -20 -6 -12 2 -23 -2 -27 -10
-3 -8 -9 -13 -13 -10 -5 3 -11 1 -14 -4 -3 -5 -15 -7 -26 -4 -12 3 -20 0 -20
-7 0 -10 -3 -10 -14 -1 -10 8 -16 9 -21 1 -3 -6 -11 -7 -17 -4 -7 5 -8 2 -3
-6 6 -10 1 -12 -19 -8 -19 4 -24 2 -17 -6 7 -8 4 -12 -10 -12 -10 0 -19 4 -19
9 0 4 -5 5 -10 2 -6 -4 -8 -10 -5 -15 3 -4 -4 -6 -15 -3 -13 3 -20 0 -20 -8 0
-12 -2 -12 -9 0 -7 10 -12 8 -26 -10 -10 -15 -15 -17 -12 -7 4 10 2 20 -3 23
-9 5 -14 -6 -12 -26 1 -3 -5 -6 -13 -6 -8 0 -11 5 -8 11 4 6 -1 5 -10 -2 -9
-8 -21 -11 -27 -7 -5 3 -10 2 -10 -4 0 -6 -8 -7 -17 -4 -13 5 -15 3 -9 -13 7
-18 6 -18 -10 -2 -16 16 -19 16 -45 -3 -16 -11 -30 -15 -34 -10 -3 6 -19 3
-39 -9 -19 -10 -37 -16 -40 -13 -3 4 -6 1 -6 -7 0 -10 -3 -10 -16 0 -8 8 -14
9 -13 4 4 -21 -2 -28 -11 -14 -8 12 -10 12 -11 -5 l0 -20 -9 20 c-8 18 -9 18
-9 2 -1 -11 -6 -15 -12 -11 -6 3 -15 0 -20 -7 -7 -12 -9 -12 -9 0 0 10 -8 7
-25 -9 -14 -13 -25 -18 -25 -12 0 7 5 12 10 12 6 0 10 6 10 13 -1 6 -10 1 -20
-12 -12 -14 -20 -18 -20 -10 0 9 -3 10 -8 4 -4 -6 -14 -10 -22 -10 -8 0 -21
-6 -27 -15 -11 -13 -14 -13 -23 0 -9 14 -14 7 -11 -13 1 -4 -8 -3 -19 3 -16 9
-19 8 -13 -6 5 -14 3 -15 -12 -6 -19 10 -51 -1 -67 -23 -5 -6 -8 -4 -8 5 0 10
-3 11 -8 4 -11 -17 -35 -22 -54 -13 -14 8 -16 5 -13 -13 4 -21 3 -21 -9 -6 -7
10 -16 15 -19 11 -4 -3 -1 -13 6 -21 10 -13 9 -14 -10 -2 -18 12 -24 12 -39
-1 -10 -8 -15 -9 -11 -3 3 6 0 11 -8 11 -8 0 -12 -4 -9 -9 3 -4 -2 -8 -11 -8
-10 0 -13 -5 -9 -12 6 -10 5 -10 -7 -1 -12 9 -18 10 -27 1 -8 -8 -15 -8 -28 3
-16 13 -16 12 -4 -11 12 -23 12 -24 -4 -11 -14 12 -19 12 -25 2 -5 -7 -11 -12
-15 -12 -26 4 -36 0 -30 -11 5 -10 4 -10 -6 -1 -14 12 -37 7 -59 -14 -10 -11
-16 -11 -27 -2 -11 9 -14 9 -14 0 0 -7 -4 -9 -10 -6 -5 3 -10 1 -10 -5 0 -8
-6 -7 -21 1 -13 7 -19 7 -15 1 3 -6 2 -13 -4 -17 -5 -3 -10 0 -10 7 -1 10 -4
9 -13 -2 -7 -8 -18 -15 -24 -16 -39 -3 -44 -5 -38 -14 4 -7 -3 -7 -20 0 -14 5
-24 6 -21 1 3 -5 -1 -11 -9 -15 -8 -3 -15 0 -15 7 0 8 -4 6 -10 -3 -8 -13 -10
-13 -10 0 0 10 -5 7 -16 -8 -8 -12 -19 -20 -24 -17 -5 3 -11 1 -14 -4 -3 -5
-21 -6 -40 -1 -29 6 -34 5 -29 -9 4 -9 3 -13 -2 -9 -4 4 -14 0 -22 -10 -8 -9
-12 -11 -8 -4 9 17 -43 5 -66 -14 -9 -8 -19 -11 -22 -7 -4 3 -7 -2 -8 -13 0
-13 -2 -15 -6 -5 -4 11 -10 8 -25 -10 -11 -13 -17 -17 -13 -9 6 13 5 13 -7 0
-7 -8 -22 -22 -32 -30 -18 -13 -19 -13 -12 0 4 8 -1 5 -12 -7 -11 -12 -22 -19
-26 -16 -3 4 -6 -1 -6 -10 0 -11 -5 -14 -17 -10 -10 3 -14 2 -10 -2 4 -5 -9
-20 -30 -33 -21 -13 -30 -21 -20 -18 11 3 16 2 12 -4 -3 -6 -13 -10 -21 -10
-8 0 -12 -5 -9 -10 3 -6 -1 -13 -10 -16 -9 -4 -14 -13 -11 -20 3 -8 0 -11 -10
-7 -10 4 -17 -2 -21 -16 -3 -11 -9 -18 -14 -15 -5 3 -9 -6 -9 -20 0 -15 -11
-33 -27 -46 -16 -12 -22 -19 -16 -15 9 4 11 1 7 -10 -4 -9 -12 -14 -19 -11 -8
3 -10 -4 -7 -21 3 -18 1 -24 -7 -19 -7 5 -11 -2 -11 -19 0 -14 -4 -24 -9 -20
-5 3 -13 0 -17 -6 -4 -7 -3 -9 3 -6 6 4 13 0 16 -8 4 -9 1 -12 -9 -8 -10 4
-12 0 -7 -13 5 -14 3 -16 -13 -11 -19 7 -19 7 0 -8 17 -13 16 -19 -4 -17 -3 0
-7 -8 -7 -19 -1 -13 2 -17 10 -12 8 4 8 2 -1 -9 -7 -9 -12 -20 -11 -24 4 -23
-2 -45 -11 -39 -5 3 -10 -1 -10 -9 0 -9 5 -16 10 -16 6 0 10 -5 10 -11 0 -5
-4 -8 -10 -4 -6 4 -9 -575 -9 -1604 0 -1513 1 -1610 17 -1605 14 5 14 3 -2
-10 -18 -15 -15 -21 8 -17 5 1 4 -5 -4 -13 -10 -13 -10 -16 0 -16 9 0 9 -4 -1
-17 -8 -9 -9 -14 -3 -10 13 8 25 -14 31 -58 3 -16 11 -33 18 -38 8 -4 11 -15
8 -24 -5 -12 -3 -14 8 -8 8 4 11 5 7 0 -4 -4 -2 -15 5 -23 9 -13 9 -14 0 -8
-7 4 -13 2 -13 -3 0 -6 8 -11 18 -11 14 0 15 -2 2 -10 -13 -8 -13 -10 2 -10
12 0 16 -5 11 -18 -3 -9 -3 -14 2 -10 4 4 19 -7 32 -24 17 -24 20 -34 10 -40
-8 -5 -5 -8 10 -8 17 0 21 -5 18 -21 -4 -18 -2 -19 12 -7 12 9 15 9 9 1 -4 -8
-2 -13 4 -13 7 0 9 -7 6 -17 -4 -10 -4 -15 -1 -11 10 9 45 -24 38 -35 -4 -6 1
-8 11 -4 12 5 23 -3 37 -26 12 -17 18 -23 14 -12 -6 20 -6 20 13 0 11 -11 18
-23 15 -28 -4 -6 20 -11 40 -8 5 1 6 -3 2 -9 -3 -5 -1 -10 5 -10 6 0 9 -4 6
-9 -3 -5 3 -11 15 -14 17 -5 18 -3 8 10 -8 8 2 6 24 -7 20 -12 37 -24 37 -27
0 -2 -5 -1 -12 3 -7 4 -8 3 -4 -5 6 -9 11 -9 24 1 9 7 13 9 10 3 -8 -13 19
-38 27 -25 10 16 25 11 25 -7 0 -15 2 -16 10 -3 7 11 10 11 10 2 0 -7 4 -11 9
-8 5 3 14 -1 21 -9 9 -11 17 -12 32 -4 15 8 19 8 14 0 -4 -6 0 -11 9 -11 9 0
14 -4 11 -8 -2 -4 4 -8 14 -8 11 0 16 6 13 16 -4 12 -2 12 9 -2 14 -16 288
-17 4409 -17 2750 0 4388 3 4379 9 -8 5 -10 10 -4 10 5 0 15 -5 22 -12 9 -9
15 -9 25 1 10 10 8 11 -8 6 -16 -5 -17 -5 -5 3 10 8 19 7 29 -1 12 -10 13 -9
7 1 -6 10 -2 13 15 10 13 -2 30 4 37 12 12 13 13 12 8 -5 -6 -19 -5 -19 7 -3
8 10 17 15 20 11 4 -3 7 -2 7 4 0 6 7 14 16 17 10 4 13 2 8 -7 -6 -9 -5 -9 8
0 8 7 19 9 23 5 5 -4 5 1 2 10 -4 12 -1 16 14 13 10 -2 19 0 19 5 0 5 7 7 15
4 10 -4 15 0 15 11 0 9 4 14 9 10 5 -3 13 0 16 6 4 5 14 8 23 4 9 -3 13 -3 10
1 -13 12 11 44 29 37 12 -5 14 -3 8 7 -6 10 -3 12 13 8 14 -4 19 -2 15 7 -5
15 30 38 41 27 4 -3 4 2 0 11 -4 12 -2 17 7 15 8 -2 13 3 12 9 -2 7 3 12 10
10 6 -1 11 3 10 10 -2 7 6 17 17 23 11 6 18 15 15 20 -3 6 1 7 9 4 10 -4 16 0
17 10 3 30 4 34 13 43 5 4 7 3 3 -3 -3 -6 0 -11 8 -11 11 0 12 5 3 20 -7 14
-7 17 1 13 6 -4 11 0 11 9 0 9 5 13 10 10 6 -4 10 5 10 20 0 20 4 26 14 22 10
-4 14 0 11 14 -2 10 0 19 6 19 5 0 9 5 9 11 0 5 -5 7 -12 3 -7 -5 -8 -3 -4 5
5 7 14 10 20 8 7 -3 13 1 13 9 0 7 -5 11 -10 7 -5 -3 -2 6 7 19 9 14 13 28 9
33 -5 4 1 5 11 1 16 -5 17 -4 6 9 -9 11 -9 15 -1 15 9 0 9 5 0 21 -6 12 -7 19
-1 15 5 -3 13 1 16 10 3 8 2 13 -2 10 -5 -3 -9 1 -9 8 0 8 6 12 13 9 10 -3 12
232 13 1131 0 885 -2 1136 -12 1136 -8 0 -7 3 2 9 12 8 12 12 -2 26 -20 19
-23 32 -4 17 10 -8 13 -6 13 7 0 11 -6 17 -13 14 -9 -4 -11 0 -7 11 3 9 -2 28
-11 42 -9 15 -12 23 -6 20 6 -4 11 0 11 9 0 9 -4 14 -9 11 -5 -3 -11 3 -14 14
-3 10 0 21 7 24 6 2 3 5 -7 5 -10 1 -15 6 -12 11 3 6 -2 10 -12 10 -15 0 -16
2 -3 10 13 8 13 11 1 19 -7 5 -11 13 -7 19 3 6 -3 17 -14 25 -11 7 -17 17 -13
20 3 4 0 7 -8 7 -11 0 -11 2 1 10 12 8 10 10 -10 10 -20 0 -22 2 -10 10 13 8
13 10 -2 10 -9 0 -20 5 -24 12 -4 7 -3 8 4 4 7 -4 12 -3 12 3 0 5 -9 13 -20
16 -11 3 -20 11 -20 16 0 16 -27 39 -36 31 -5 -4 -2 1 5 11 12 15 12 17 -4 11
-13 -5 -16 -4 -11 4 4 7 1 12 -6 12 -15 0 -48 35 -48 51 0 5 -4 8 -9 5 -5 -3
-11 1 -15 9 -3 8 -12 15 -21 15 -8 0 -15 5 -15 11 0 5 -5 7 -10 4 -5 -3 -10 1
-10 11 0 11 -6 15 -20 11 -13 -3 -18 -1 -13 6 4 6 0 8 -10 4 -12 -4 -15 -1
-12 16 4 21 4 21 -10 3 -8 -11 -15 -14 -15 -7 0 7 -5 9 -12 5 -10 -6 -10 -4 0
8 11 14 10 16 -12 14 -14 -2 -23 0 -21 4 3 5 -2 11 -11 14 -9 4 -13 2 -8 -5 4
-8 0 -7 -15 0 -11 7 -21 14 -21 17 0 3 5 2 12 -2 6 -4 8 -3 5 4 -4 5 -17 8
-29 4 -16 -4 -19 -2 -13 9 6 11 5 12 -6 1 -18 -16 -29 -15 -29 3 0 8 -5 15
-11 15 -5 0 -7 -6 -3 -13 6 -9 4 -9 -8 1 -9 7 -22 12 -30 11 -20 -3 -49 12
-42 23 4 6 -4 5 -16 -2 -20 -11 -22 -10 -17 3 4 11 2 14 -9 10 -8 -3 -24 3
-34 12 -11 10 -20 15 -20 10 0 -4 -8 -1 -17 6 -15 11 -16 11 -5 -1 21 -24 13
-32 -10 -10 -13 12 -31 19 -41 16 -14 -3 -17 0 -13 12 5 13 3 12 -9 -2 -14
-18 -15 -19 -15 -2 0 15 -6 17 -30 14 -17 -3 -34 0 -37 5 -4 6 -1 7 7 2 9 -5
11 -4 6 4 -6 9 -11 9 -24 -1 -13 -11 -15 -11 -10 3 5 13 2 16 -14 11 -13 -3
-19 -1 -15 5 7 12 -23 11 -42 -2 -10 -6 -12 -4 -6 5 6 10 3 12 -13 8 -14 -4
-19 -2 -16 7 3 7 -4 15 -16 18 -18 4 -19 3 -9 -9 10 -12 9 -13 -5 -8 -9 3 -16
10 -16 16 0 5 -4 6 -10 3 -5 -3 -10 -1 -10 6 0 10 -3 10 -12 1 -7 -7 -17 -12
-22 -12 -6 0 -4 5 4 10 14 9 7 12 -16 9 -4 0 -11 5 -15 13 -7 11 -9 11 -9 0 0
-10 -4 -10 -15 2 -9 8 -23 12 -32 9 -10 -4 -14 -2 -10 4 4 7 -2 11 -16 10 -30
-1 -49 5 -65 21 -8 7 -23 10 -33 7 -11 -4 -19 -2 -19 6 0 8 -5 8 -16 -2 -15
-12 -16 -11 -10 11 6 21 5 22 -4 8 -6 -10 -16 -18 -23 -18 -8 0 -8 3 1 9 11 7
11 9 -2 14 -9 4 -16 1 -16 -6 0 -7 -3 -8 -8 -2 -7 10 -27 17 -49 18 -7 0 -15
7 -19 16 -5 14 -7 13 -14 -4 -8 -18 -9 -18 -9 5 -1 20 -3 22 -11 10 -9 -13
-11 -13 -20 0 -7 11 -10 12 -10 2 0 -10 -4 -9 -16 2 -8 9 -20 14 -25 11 -5 -4
-9 -1 -9 6 0 7 -11 10 -29 7 -21 -3 -28 -1 -24 9 5 11 -15 18 -40 14 -4 -1
-15 12 -25 29 -9 16 -21 30 -26 30 -5 0 -2 -8 5 -17 13 -16 12 -17 -3 -4 -10
7 -18 20 -18 28 0 8 -5 11 -12 7 -8 -5 -9 -2 -5 10 4 10 3 15 -3 11 -5 -3 -18
-1 -27 4 -11 7 -13 11 -5 11 18 0 -11 30 -30 30 -10 0 -9 3 2 10 13 8 12 10
-2 10 -10 0 -18 7 -18 15 0 8 -6 15 -12 15 -9 0 -8 4 2 10 9 6 10 10 3 10 -7
0 -17 10 -24 21 -8 15 -8 19 0 15 6 -4 11 -2 11 3 0 6 -7 11 -16 11 -8 0 -12
5 -9 10 4 6 1 18 -7 27 -7 9 -8 14 -2 10 6 -3 11 0 11 8 0 8 -4 12 -9 9 -4 -3
-8 5 -8 18 0 13 -6 30 -12 36 -10 10 -10 15 2 22 13 9 13 11 0 20 -13 9 -13
10 0 10 13 0 13 1 0 10 -13 9 -13 11 0 20 13 9 13 11 0 20 -13 9 -13 10 0 10
12 0 12 2 2 8 -7 5 -10 16 -6 25 3 9 11 14 16 11 6 -4 5 2 -1 14 -9 16 -8 24
5 36 8 9 12 20 9 26 -3 5 -1 10 4 10 6 0 11 5 11 11 0 5 -5 7 -12 3 -7 -5 -8
-3 -4 5 5 7 14 10 21 7 9 -3 12 5 10 30 -1 25 1 31 10 24 8 -7 12 -5 13 5 1 8
3 22 4 30 1 8 15 27 31 42 17 16 27 22 23 16 -4 -7 -5 -13 -1 -13 3 0 10 12
15 26 6 14 14 23 19 20 11 -7 43 28 34 38 -4 4 0 4 9 1 11 -4 21 0 29 13 7 11
18 18 24 15 7 -2 20 3 29 12 9 9 16 11 16 5 0 -6 5 -8 10 -5 6 4 8 10 5 15 -3
4 3 7 12 5 10 -1 29 3 43 10 14 7 31 10 37 8 7 -3 16 3 19 11 5 12 10 14 19 6
9 -8 15 -8 20 0 3 6 11 7 17 4 7 -4 8 -2 4 4 -4 7 -1 12 8 12 8 0 17 -6 19
-12 3 -7 6 -3 6 10 1 24 16 30 24 10 4 -10 6 -10 6 0 1 7 6 10 11 7 6 -3 10
-2 10 4 0 6 6 8 14 5 8 -3 17 0 21 6 6 9 10 9 16 -1 7 -11 9 -10 9 3 0 12 5
15 17 11 11 -5 14 -3 8 6 -6 10 -3 11 15 1 18 -10 21 -9 15 1 -6 9 -3 11 8 6
12 -4 17 -1 17 10 0 14 2 14 15 -3 15 -19 15 -19 8 1 -6 18 -5 19 12 5 11 -9
16 -10 11 -2 -7 12 4 16 32 13 6 -1 12 4 12 11 0 9 3 9 10 -2 8 -13 10 -12 10
3 0 10 5 15 10 12 6 -4 18 -1 27 7 14 11 16 11 9 0 -7 -11 -4 -12 12 -3 12 6
25 10 29 9 17 -4 53 14 47 24 -4 6 1 6 14 -1 15 -8 23 -8 28 1 5 7 3 8 -7 3
-8 -5 -5 1 5 13 15 17 22 19 33 11 9 -9 17 -8 27 0 7 6 22 8 31 4 14 -5 17 -3
13 8 -4 10 3 15 24 16 20 2 27 -2 23 -10 -4 -7 0 -5 7 5 10 11 19 13 31 7 13
-8 15 -6 10 7 -5 13 -3 15 7 9 10 -6 12 -4 6 10 -5 15 -4 16 9 5 12 -10 18
-10 32 1 10 8 14 9 10 2 -4 -6 -2 -15 4 -19 7 -4 9 -3 6 3 -4 6 2 18 13 28 12
10 20 13 20 7 0 -7 -5 -12 -11 -12 -5 0 -7 -5 -4 -11 5 -6 13 -2 22 11 8 12
21 19 28 16 8 -3 16 0 19 7 3 9 5 9 5 0 1 -7 6 -13 12 -13 5 0 7 5 3 12 -5 8
-2 9 10 5 10 -4 15 -3 11 3 -3 6 5 10 19 10 14 0 26 4 26 9 0 6 9 8 21 6 15
-3 19 0 15 10 -6 16 15 16 26 0 4 -6 8 -2 8 8 0 10 4 15 10 12 5 -3 22 2 37
12 15 10 30 18 33 17 13 -2 70 42 70 55 0 8 3 12 6 8 8 -8 33 16 27 25 -2 4 2
5 10 2 18 -7 41 21 31 38 -5 8 -1 8 11 -2 10 -8 16 -10 12 -3 -5 7 1 17 13 23
11 6 17 16 14 22 -5 8 -1 9 10 5 14 -6 16 -3 11 13 -5 15 -3 18 9 14 12 -5 15
-2 10 10 -4 11 -1 16 12 16 9 0 14 3 11 7 -4 3 1 12 11 20 9 8 11 11 3 7 -10
-5 -12 -3 -7 5 5 7 15 10 24 6 9 -3 13 -3 9 1 -4 4 -2 13 4 21 9 10 8 13 0 13
-8 0 -7 6 3 16 9 8 14 20 11 25 -4 5 2 6 11 2 11 -4 15 -2 11 4 -8 13 14 63
28 63 6 0 3 5 -5 10 -11 7 -11 10 -2 10 7 0 10 5 7 10 -3 6 -1 10 6 10 7 0 9
3 6 7 -4 3 1 12 11 20 16 12 16 13 -3 7 -17 -5 -18 -4 -5 8 8 7 16 24 16 38 2
38 3 42 12 36 4 -2 8 6 8 19 0 14 -4 21 -10 17 -7 -4 -7 -1 0 9 15 20 19 232
4 259 -7 14 -8 20 -2 16 6 -4 10 2 9 13 -1 14 -5 17 -13 10 -9 -7 -11 -1 -9
25 4 46 -4 78 -19 69 -6 -4 -5 1 3 10 12 15 12 17 -4 11 -15 -6 -16 -4 -5 16
10 18 9 21 -1 15 -9 -6 -11 -3 -6 9 4 11 3 15 -4 10 -6 -4 -9 1 -7 12 3 22
-25 67 -36 57 -4 -4 -4 1 0 11 5 13 4 17 -4 12 -8 -5 -10 -2 -6 8 3 9 1 16 -5
16 -6 0 -11 5 -11 11 0 5 5 7 12 3 7 -4 8 -3 4 4 -4 6 -13 9 -21 5 -11 -4 -13
-1 -9 11 4 10 1 16 -9 16 -9 0 -17 10 -19 23 -2 12 -9 21 -15 20 -8 -2 -10 4
-6 14 4 11 3 14 -5 9 -11 -7 -17 6 -13 28 1 5 -6 3 -15 -5 -12 -9 -15 -9 -10
-1 4 7 2 12 -6 12 -9 0 -9 3 2 10 12 8 11 10 -6 10 -12 0 -28 8 -35 18 -13 15
-12 16 4 3 15 -12 17 -12 11 3 -3 9 -15 16 -25 16 -10 0 -19 5 -19 11 0 5 -4
8 -8 5 -5 -3 -23 12 -42 34 -18 21 -38 36 -44 34 -7 -3 -21 5 -33 16 -13 12
-24 16 -28 10 -9 -15 -25 -2 -18 16 3 8 2 14 -3 13 -25 -4 -54 2 -49 11 4 6
-1 7 -11 3 -13 -5 -15 -3 -9 7 5 9 4 11 -4 6 -6 -4 -19 -2 -28 6 -10 7 -14 8
-10 1 8 -13 -18 -12 -30 2 -5 4 -1 4 7 0 13 -8 13 -7 1 8 -14 18 -26 23 -17 8
7 -10 -19 -23 -28 -14 -3 4 0 13 7 21 10 13 9 14 -10 3 -19 -10 -23 -9 -23 4
0 9 -5 13 -10 10 -6 -4 -8 -11 -5 -16 4 -5 -5 -4 -19 3 -14 6 -26 15 -26 20 0
5 -4 7 -9 3 -5 -3 -13 -1 -16 5 -5 8 -11 7 -21 -1 -14 -11 -19 -3 -15 26 1 6
-5 2 -12 -7 -12 -15 -14 -15 -25 0 -7 9 -10 11 -7 5 4 -10 0 -10 -17 -4 -13 5
-22 13 -21 18 1 5 -4 10 -12 10 -8 0 -12 -4 -9 -8 2 -4 0 -11 -6 -14 -6 -4 -9
-1 -8 7 2 8 -9 14 -27 16 -16 2 -34 8 -39 13 -6 5 -21 9 -35 9 -19 0 -22 3
-12 9 10 6 2 9 -24 9 -21 0 -41 6 -45 13 -5 7 -16 14 -24 15 -9 1 -14 -2 -11
-7 4 -5 -1 -6 -9 -3 -9 3 -13 11 -9 18 4 6 -1 5 -10 -3 -13 -10 -17 -10 -17
-1 0 10 -3 10 -15 0 -12 -10 -14 -8 -10 8 3 19 -15 25 -31 9 -3 -3 -16 1 -28
9 -13 8 -26 11 -29 7 -4 -3 -7 -1 -7 5 0 7 -13 12 -30 12 -17 0 -30 5 -30 13
0 8 -4 7 -10 -3 -8 -12 -10 -12 -10 -1 0 8 -3 11 -7 8 -3 -4 -12 1 -20 11 -8
9 -12 11 -8 5 4 -8 0 -13 -10 -13 -9 0 -13 5 -10 10 4 6 -3 9 -17 6 -13 -2
-29 1 -35 6 -7 6 -13 7 -13 2 0 -4 -11 3 -25 16 -19 18 -28 20 -38 12 -10 -9
-18 -7 -34 7 -15 15 -23 17 -32 8 -8 -8 -11 -8 -11 2 0 8 -7 11 -20 8 -12 -3
-20 0 -20 7 0 7 -7 13 -15 14 -8 1 -22 3 -30 4 -8 1 -12 5 -9 10 4 5 0 8 -8 6
-19 -4 -80 41 -72 54 4 6 2 8 -4 5 -14 -9 -43 3 -36 14 3 5 -3 9 -13 9 -15 0
-16 2 -3 10 12 8 13 10 1 10 -23 0 -50 30 -43 48 5 14 3 15 -9 5 -11 -9 -14
-7 -16 15 0 15 -6 28 -12 30 -6 2 -9 8 -5 13 3 5 0 9 -6 9 -6 0 -8 5 -5 10 3
6 2 10 -2 10 -5 0 -10 10 -10 22 -1 13 -10 29 -20 37 -14 10 -14 12 -2 8 9 -3
16 0 16 9 0 7 -4 11 -8 9 -3 -3 -12 2 -19 10 -11 13 -10 14 6 8 16 -6 17 -4 6
9 -7 8 -9 24 -5 33 4 13 3 16 -6 10 -10 -6 -11 -3 -3 12 6 11 7 25 2 33 -5 8
-4 22 1 32 5 10 6 18 1 18 -4 0 -8 9 -8 19 0 11 3 18 6 16 3 -2 11 5 18 15 9
14 9 21 0 26 -6 4 -8 3 -4 -4 3 -6 2 -13 -3 -16 -5 -4 -8 2 -7 11 2 9 8 19 14
21 7 2 12 8 12 13 0 6 -6 7 -13 3 -6 -4 -3 3 8 16 12 14 14 20 5 15 -8 -5 -3
4 12 19 22 22 25 32 18 47 -8 14 -7 17 3 13 8 -3 17 2 21 11 4 11 2 14 -7 10
-6 -4 -4 0 6 8 9 8 17 19 17 26 0 10 13 15 32 12 4 0 5 5 2 13 -3 7 3 19 12
27 15 12 17 12 9 0 -6 -10 -4 -12 4 -7 7 5 10 15 6 23 -5 14 -3 14 12 2 11 -9
14 -10 9 -1 -4 7 -2 12 4 12 6 0 8 4 5 10 -4 6 1 7 11 3 12 -4 15 -3 10 5 -4
7 -1 12 8 12 9 0 16 8 17 18 0 10 3 12 6 5 7 -20 21 -15 28 8 6 17 9 19 16 8
8 -12 11 -12 19 1 5 8 10 11 10 7 0 -5 8 -1 17 8 16 16 18 16 31 -1 11 -15 13
-15 9 -3 -4 11 3 20 19 28 15 7 23 7 19 1 -3 -5 -1 -10 4 -10 6 0 11 5 11 10
0 6 5 10 11 10 5 0 7 -6 4 -12 -4 -7 0 -5 8 4 8 10 17 15 20 11 4 -3 7 0 7 8
0 11 2 11 10 -1 7 -12 10 -12 10 -1 0 7 6 11 15 7 8 -3 15 0 15 7 0 8 4 6 10
-3 8 -13 10 -12 10 4 0 15 3 16 15 6 13 -11 14 -10 9 5 -5 13 -3 16 7 13 8 -3
22 -1 32 4 11 6 17 5 17 -2 0 -6 5 -8 10 -5 6 4 7 12 3 18 -4 8 -1 7 9 -1 13
-10 18 -10 24 -1 5 8 3 9 -6 4 -9 -6 -11 -4 -6 4 5 7 11 10 14 7 3 -3 11 -1
18 5 8 7 14 6 20 -2 5 -8 3 -9 -6 -4 -9 6 -11 4 -5 -5 6 -10 11 -9 21 4 7 11
18 15 25 10 9 -5 10 -2 5 11 -5 15 -4 16 9 5 9 -7 15 -8 15 -2 0 5 10 8 22 4
14 -3 19 -2 14 6 -4 7 -3 12 3 12 5 0 13 -5 16 -11 5 -7 13 -5 24 5 10 9 21
13 26 9 4 -5 6 -1 2 8 -4 13 -1 16 14 12 10 -3 19 -10 19 -17 0 -6 5 -3 11 7
6 10 15 14 22 10 7 -4 5 2 -3 12 -14 17 -14 18 6 7 17 -9 24 -9 34 3 10 12 16
13 28 3 13 -11 14 -11 7 1 -6 11 -4 13 8 8 11 -4 17 -1 17 8 0 17 16 20 25 5
8 -13 36 0 28 14 -3 6 -3 8 2 4 4 -4 22 0 39 9 30 15 30 15 16 -2 -14 -17 -14
-17 6 -7 12 6 25 8 29 4 5 -4 5 -2 1 5 -3 6 -2 14 4 18 5 3 10 0 10 -7 0 -7
10 -2 21 12 16 20 20 21 15 6 -7 -20 -7 -20 15 0 14 11 19 13 14 4 -8 -13 -7
-13 8 -1 14 11 20 11 34 0 9 -8 14 -9 10 -3 -9 16 12 32 48 37 17 2 29 10 27
16 -1 7 2 10 8 6 6 -3 8 -11 5 -16 -4 -5 -2 -9 3 -9 5 0 12 10 15 22 5 18 8
19 21 8 12 -9 16 -9 16 0 0 6 6 10 13 7 6 -2 18 3 25 12 11 13 12 13 7 1 -4
-10 -2 -9 8 2 8 10 17 15 21 11 4 -4 11 -1 16 7 5 8 16 15 24 15 9 0 23 9 31
20 9 11 14 13 10 5 -4 -10 -2 -9 8 3 8 9 20 17 26 17 7 0 9 4 6 10 -3 6 1 7 9
4 15 -6 21 6 17 30 -1 5 4 4 12 -2 11 -10 17 -9 27 2 6 9 9 19 6 24 -3 6 2 9
11 8 10 0 18 5 18 12 0 16 26 33 39 25 5 -4 7 1 3 10 -4 12 -1 17 11 17 15 0
15 2 2 10 -10 7 -11 10 -2 11 27 3 31 4 39 13 5 5 3 6 -4 2 -7 -4 -13 -2 -13
3 0 11 15 15 34 12 5 -1 4 5 -4 13 -12 15 -7 21 14 17 5 -1 3 5 -4 14 -7 9 -9
15 -4 14 26 -5 36 2 31 21 -3 11 -1 18 3 15 5 -3 14 4 20 16 10 17 9 20 -2 13
-10 -6 -11 -5 -1 8 7 8 9 19 5 24 -4 4 2 2 12 -6 18 -14 19 -14 7 8 -9 18 -9
22 1 20 8 -2 12 4 10 15 -2 9 2 17 8 17 8 0 7 6 0 21 -11 19 -10 20 10 9 20
-11 21 -10 10 10 -8 15 -8 20 -1 16 7 -5 9 3 4 26 -5 28 -4 31 8 21 12 -10 14
10 17 134 2 115 0 143 -10 137 -9 -5 -9 -2 1 10 11 13 11 20 3 28 -7 7 -12 17
-12 23 0 5 5 3 10 -5 8 -13 10 -12 10 3 0 9 -4 17 -10 17 -5 0 -10 5 -10 11 0
5 4 8 8 5 5 -3 9 1 9 9 0 8 -3 14 -6 13 -20 -2 -31 3 -26 12 4 6 12 7 18 3 7
-3 3 4 -8 17 -11 13 -14 20 -7 16 8 -5 5 7 -7 29 -11 20 -17 44 -14 53 4 10 2
13 -5 8 -8 -5 -12 0 -12 13 0 12 -4 21 -10 21 -5 0 -10 5 -10 11 0 5 6 7 13 4
6 -4 3 2 -9 12 -12 10 -24 26 -27 36 -4 10 -11 16 -16 13 -5 -3 -7 4 -3 16 4
17 2 20 -13 14 -15 -5 -16 -4 -5 9 10 12 10 15 -4 15 -10 0 -16 8 -16 21 0 16
-5 19 -22 15 -13 -3 -17 -3 -10 0 17 8 15 24 -4 24 -10 0 -14 5 -10 16 3 8 2
13 -2 11 -4 -3 -13 1 -20 9 -7 8 -10 14 -5 14 4 0 -2 6 -12 14 -11 8 -23 12
-27 10 -5 -3 -8 1 -8 9 0 8 -8 21 -17 28 -15 11 -16 11 -5 -1 6 -8 12 -18 12
-23 0 -5 -10 3 -22 19 -34 46 -40 51 -33 29 4 -11 -2 -5 -14 13 -11 17 -24 32
-27 32 -4 0 -1 -7 6 -15 20 -25 3 -17 -25 11 -17 17 -33 24 -46 21 -10 -3 -22
0 -26 5 -3 7 -1 8 5 4 19 -12 14 -2 -10 18 -17 15 -20 15 -15 3 4 -11 2 -14
-9 -10 -7 3 -14 9 -14 15 0 5 -4 6 -10 3 -5 -3 -10 -2 -10 4 0 5 -9 8 -20 6
-11 -2 -20 1 -20 6 0 6 -4 8 -9 5 -5 -3 -12 1 -15 10 -5 12 -10 13 -19 6 -13
-11 -42 -11 -53 1 -4 3 4 4 16 2 12 -2 19 -1 16 3 -11 11 -60 8 -68 -3 -5 -6
-8 -5 -8 2 0 10 -959 12 -4387 12 -3926 0 -4389 -2 -4402 -16z m9506 -988 c0
-8 -4 -12 -9 -9 -5 3 -6 10 -3 15 9 13 12 11 12 -6z m-692 -675 c3 -6 -1 -7
-9 -4 -18 7 -21 14 -7 14 6 0 13 -4 16 -10z m-455 -144 c0 -3 -4 -8 -10 -11
-5 -3 -10 -1 -10 4 0 6 5 11 10 11 6 0 10 -2 10 -4z m-800 -412 c0 -8 -19 -13
-24 -6 -3 5 1 9 9 9 8 0 15 -2 15 -3z m-7240 -510 c0 -2 -9 0 -20 6 -11 6 -20
13 -20 16 0 2 9 0 20 -6 11 -6 20 -13 20 -16z m504 -136 c-3 -4 -11 -5 -19 -1
-21 7 -19 12 4 10 11 0 18 -5 15 -9z m7146 -108 c0 -5 -2 -10 -4 -10 -3 0 -8
5 -11 10 -3 6 -1 10 4 10 6 0 11 -4 11 -10z m-6280 -130 c0 -5 -5 -10 -11 -10
-5 0 -7 5 -4 10 3 6 8 10 11 10 2 0 4 -4 4 -10z m7444 -258 c3 -5 -1 -9 -9 -9
-8 0 -12 4 -9 9 3 4 7 8 9 8 2 0 6 -4 9 -8z m311 -362 c3 -5 1 -10 -4 -10 -6
0 -11 5 -11 10 0 6 2 10 4 10 3 0 8 -4 11 -10z m-285 -1064 c0 -2 -8 -10 -17
-17 -16 -13 -17 -12 -4 4 13 16 21 21 21 13z m-40 -30 c0 -2 -6 -9 -14 -15
-11 -9 -16 -9 -22 0 -4 7 -3 9 4 5 6 -3 13 -2 17 4 6 10 15 14 15 6z m-6703
-47 c-9 -6 -14 -15 -11 -21 4 -7 2 -8 -5 -4 -14 9 3 36 23 36 6 0 3 -5 -7 -11z
m6033 -194 c0 -7 -30 -13 -34 -7 -3 4 4 9 15 9 10 1 19 0 19 -2z m-6765 -14
c3 -5 2 -12 -3 -15 -5 -3 -9 1 -9 9 0 17 3 19 12 6z m-445 -121 c0 -5 -5 -10
-11 -10 -5 0 -7 5 -4 10 3 6 8 10 11 10 2 0 4 -4 4 -10z m-77 -25 c-3 -9 -8
-14 -10 -11 -3 3 -2 9 2 15 9 16 15 13 8 -4z m-1340 -390 c-3 -9 -8 -14 -10
-11 -3 3 -2 9 2 15 9 16 15 13 8 -4z"/>
<path d="M315 9949 c-4 -6 -5 -12 -2 -15 2 -3 7 2 10 11 7 17 1 20 -8 4z"/>
<path d="M835 7890 c3 -5 8 -10 11 -10 2 0 4 5 4 10 0 6 -5 10 -11 10 -5 0 -7
-4 -4 -10z"/>
<path d="M8565 7740 c3 -5 8 -10 11 -10 2 0 4 5 4 10 0 6 -5 10 -11 10 -5 0
-7 -4 -4 -10z"/>
<path d="M8706 7618 c3 -5 10 -6 15 -3 13 9 11 12 -6 12 -8 0 -12 -4 -9 -9z"/>
<path d="M3883 5795 c0 -8 4 -12 9 -9 5 3 6 10 3 15 -9 13 -12 11 -12 -6z"/>
<path d="M9475 5471 c-3 -5 -1 -12 5 -16 5 -3 10 1 10 9 0 18 -6 21 -15 7z"/>
<path d="M8559 5083 c-13 -17 -13 -17 6 -3 11 8 22 16 24 17 2 2 0 3 -6 3 -6
0 -17 -8 -24 -17z"/>
<path d="M1246 5053 c-6 -14 -5 -15 5 -6 7 7 10 15 7 18 -3 3 -9 -2 -12 -12z"/>
<path d="M403 4595 c0 -8 4 -12 9 -9 5 3 6 10 3 15 -9 13 -12 11 -12 -6z"/>
<path d="M8685 4361 c-3 -5 -2 -12 3 -15 5 -3 9 1 9 9 0 17 -3 19 -12 6z"/>
<path d="M283 4305 c0 -8 4 -12 9 -9 5 3 6 10 3 15 -9 13 -12 11 -12 -6z"/>
<path d="M416 687 c3 -10 9 -15 12 -12 3 3 0 11 -7 18 -10 9 -11 8 -5 -6z"/>
<path d="M555 520 c-3 -5 -1 -10 4 -10 6 0 11 5 11 10 0 6 -2 10 -4 10 -3 0
-8 -4 -11 -10z"/>
<path d="M855 350 c-3 -5 -1 -10 4 -10 6 0 11 5 11 10 0 6 -2 10 -4 10 -3 0
-8 -4 -11 -10z"/>
</g>
</svg>
